General.

Complete name                    : Ghost Rider Spirit of Vengeance[2011]ENG[BRRip]XviD-{RedDragon}.mp4
Format                           : MPEG-4
Format profile                   : Base Media / Version 2
Codec ID                         : mp42
File size                        : 749 MiB
Duration                         : 1h 35mn
Overall bit rate                 : 1,096 Kbps
IMDB Rating                      : http://www.imdb.com/title/tt1071875/
IMDB Link                        : 4.6/10


Video.

ID                               : 1
Format                           : MPEG-4 Visual
Format profile                   : Simple@L1
Format settings, BVOP            : No
Format settings, QPel            : No
Format settings, GMC             : No warppoints
Format settings, Matrix          : Default (H.263)
Codec ID                         : 20
Duration                         : 1h 35mn
Bit rate mode                    : Variable
Bit rate                         : 932 Kbps
Maximum bit rate                 : 6 239 Kbps
Width                            : 640 pixels
Height                           : 272 pixels
Display aspect ratio             : 2.35:1
Frame rate mode                  : Variable
Frame rate                       : 23.976 fps
Minimum frame rate               : 23.974 fps
Maximum frame rate               : 23.981 fps
Color space                      : YUV
Chroma subsampling               : 4:2:0
Bit depth                        : 8 bits
Scan type                        : Progressive
Bits/(Pixel*Frame)               : 0.223
Stream size                      : 637 MiB (85%)
Writing library                  : Lavc52.94.3
Encoded date                     : UTC 2012-06-01 04:50:23
Tagged date                      : UTC 2012-06-01 04:56:45


Audio.

ID                               : 2
Format                           : AAC
Format/Info                      : Advanced Audio Codec
Format version                   : Version 4
Format profile                   : LC
Format settings, SBR             : No
Codec ID                         : 40
Duration                         : 1h 35mn
Bit rate mode                    : Variable
Bit rate                         : 160 Kbps
Maximum bit rate                 : 185 Kbps
Channel(s)                       : 2 channels
Channel positions                : Front: L R
Sampling rate                    : 48.0 KHz
Stream size                      : 109 MiB (15%)
Encoded date                     : UTC 2012-06-01 04:50:23
Tagged date                      : UTC 2012-06-01 04:56:45